<?xml version="1.0" encoding="UTF-8" standalone="no"?>
<!DOCTYPE svg PUBLIC "-//W3C//DTD SVG 1.1//EN" "http://www.w3.org/Graphics/SVG/1.1/DTD/svg11.dtd">
<!-- Created with Vectornator (http://vectornator.io/) -->
<svg height="100%" stroke-miterlimit="10" style="fill-rule:nonzero;clip-rule:evenodd;stroke-linecap:round;stroke-linejoin:round;" version="1.1" viewBox="0 0 131.719 131.719" width="100%" xml:space="preserve" xmlns="http://www.w3.org/2000/svg" xmlns:xlink="http://www.w3.org/1999/xlink">
<defs/>
<g id="Ebene-1">
<path d="M39.8052 4.77381L39.8052 42.4593C39.8052 50.2355 49.5068 53.7861 54.5315 47.8512L90.9994 4.77381L39.8052 4.77381ZM114.306 4.77381L77.9545 46.3148C75.5332 49.0807 75.2002 53.1082 77.1428 56.2289L121.148 126.962L126.946 126.962L126.946 4.77381L114.306 4.77381ZM61.025 70.8103C58.4841 70.5839 55.8452 71.5011 53.9807 73.6512L41.8344 87.6238C40.5179 89.142 39.8052 91.0933 39.8052 93.1027L39.8052 126.962L98.4495 126.962L67.4605 74.8398C66.0057 72.3938 63.5659 71.0368 61.025 70.8103Z" fill="#ffffff" fill-rule="nonzero" opacity="1" stroke="none"/>
<path d="M4.7732 109.499L22.2256 109.499L22.2256 126.952L4.7732 126.952L4.7732 109.499Z" fill="#33e9ff" fill-rule="nonzero" opacity="1" stroke="none"/>
<path d="M4.7732 92.0469L22.2256 92.0469L22.2256 109.499L4.7732 109.499L4.7732 92.0469Z" fill="#ff3399" fill-rule="nonzero" opacity="1" stroke="none"/>
<path d="M4.7732 74.5945L22.2256 74.5945L22.2256 92.0469L4.7732 92.0469L4.7732 74.5945Z" fill="#3dd300" fill-rule="nonzero" opacity="1" stroke="none"/>
<path d="M4.7732 57.1421L22.2256 57.1421L22.2256 74.5945L4.7732 74.5945L4.7732 57.1421Z" fill="#3395ff" fill-rule="nonzero" opacity="1" stroke="none"/>
<path d="M4.7732 39.6897L22.2256 39.6897L22.2256 57.1421L4.7732 57.1421L4.7732 39.6897Z" fill="#ffa733" fill-rule="nonzero" opacity="1" stroke="none"/>
<path d="M4.7732 22.2373L22.2256 22.2373L22.2256 39.6897L4.7732 39.6897L4.7732 22.2373Z" fill="#c400d1" fill-rule="nonzero" opacity="1" stroke="none"/>
<path d="M4.7732 4.78485L22.2256 4.78485L22.2256 22.2373L4.7732 22.2373L4.7732 4.78485Z" fill="#fffa33" fill-rule="nonzero" opacity="1" stroke="none"/>
</g>
</svg>
