<?xml version="1.0" encoding="UTF-8"?>
<!DOCTYPE svg PUBLIC "-//W3C//DTD SVG 1.1//EN" "http://www.w3.org/Graphics/SVG/1.1/DTD/svg11.dtd">
<!-- Creator: CorelDRAW X7 -->
<svg xmlns="http://www.w3.org/2000/svg" xml:space="preserve" width="62.7748mm" height="62.7748mm" version="1.1" style="shape-rendering:geometricPrecision; text-rendering:geometricPrecision; image-rendering:optimizeQuality; fill-rule:evenodd; clip-rule:evenodd"
viewBox="0 0 1417 1417"
 xmlns:xlink="http://www.w3.org/1999/xlink">
 <defs>
  <style type="text/css">
   <![CDATA[
    .fil0 {fill:white}
   ]]>
  </style>
 </defs>
 <g id="Ebene_x0020_1">
  <metadata id="CorelCorpID_0Corel-Layer"/>
  <path class="fil0" d="M113 0l1191 0c62,0 113,51 113,113l0 1191c0,62 -51,113 -113,113l-1191 0c-62,0 -113,-51 -113,-113l0 -1191c0,-62 51,-113 113,-113zm635 451l527 0 -527 -348 0 348zm0 40l527 0 -264 173 -263 -173zm-40 -388l-527 348 527 348c0,-232 0,-464 0,-696zm0 832l-527 0 264 -174 263 174zm40 387l527 -347 -527 -348c0,232 0,464 0,695zm-40 -347l-527 0 527 347 0 -347z"/>
 </g>
</svg>
